<?xml version="1.0" encoding="UTF-8"?>
<!-- Created with Inkscape (http://www.inkscape.org/) -->
<svg width="56.033mm" height="69.225mm" version="1.1" viewBox="0 0 56.033 69.225" xmlns="http://www.w3.org/2000/svg">
 <g transform="translate(-142.2 160.84)">
  <rect x="457.18" y="-244.84" width="525.83" height="229.4" ry=".65628" stroke-width=".265"/>
  <path d="m168.05-107.05c-2.5314 0-4.5692 2.8024-4.5692 6.2834 0 3.481 2.0379 6.2834 4.5692 6.2834h22.784c1.3858 0 7.398 2.877 7.398 2.877s-2.8288-7.5852-2.8288-9.1605c0-3.481-2.0379-6.2834-4.5692-6.2834zm-1.3803 2.6905h25.545c0.36358 0 0.65629 0.40253 0.65629 0.90251s-0.29271 0.90251-0.65629 0.90251h-25.545c-0.36359 0-0.6563-0.40253-0.6563-0.90251s0.29271-0.90251 0.6563-0.90251zm0 5.3809h25.545c0.36358 0 0.65629 0.40252 0.65629 0.90251 0 0.49998-0.29271 0.9025-0.65629 0.9025h-25.545c-0.36359 0-0.6563-0.40252-0.6563-0.9025 0-0.49998 0.29271-0.90251 0.6563-0.90251z" fill="#04a" stroke-width=".30375"/>
  <text transform="scale(.7907 1.2647)" x="264.06039" y="-73.868172" fill="#1c1f24" font-family="'Poor Richard'" font-size="74.714px" letter-spacing="6.5083px" stroke-width=".38913" style="font-variant-caps:normal;font-variant-east-asian:normal;font-variant-ligatures:normal;font-variant-numeric:normal;line-height:1.25" xml:space="preserve"><tspan x="264.06039" y="-73.868172" fill="#1c1f24" font-family="'Poor Richard'" font-size="74.714px" stroke-width=".38913" style="font-variant-caps:normal;font-variant-east-asian:normal;font-variant-ligatures:normal;font-variant-numeric:normal">NetChat</tspan></text>
  <g stroke-width=".30375">
   <path d="m168.05-142.91c-2.5314 0-4.5692 2.8024-4.5692 6.2834 0 3.481 2.0379 6.2834 4.5692 6.2834h22.784c1.3858 0 7.398 2.877 7.398 2.877s-2.8288-7.5852-2.8288-9.1605c0-3.481-2.0379-6.2834-4.5692-6.2834zm-1.3803 2.6905h25.545c0.36358 0 0.65629 0.40253 0.65629 0.90251s-0.29271 0.9025-0.65629 0.9025h-25.545c-0.36358 0-0.65629-0.40252-0.65629-0.9025s0.29271-0.90251 0.65629-0.90251zm0 5.3809h25.545c0.36358 0 0.65629 0.40252 0.65629 0.90251 0 0.49998-0.29271 0.9025-0.65629 0.9025h-25.545c-0.36358 0-0.65629-0.40252-0.65629-0.9025 0-0.49999 0.29271-0.90251 0.65629-0.90251z" fill="#04a"/>
   <path d="m172.38-109.54c2.5314 0 4.5692-2.8024 4.5692-6.2834 0-3.481-2.0379-6.2834-4.5692-6.2834h-22.784c-1.3858 0-7.398-2.877-7.398-2.877s2.8288 7.5852 2.8288 9.1605c0 3.481 2.0379 6.2834 4.5692 6.2834zm1.3803-2.6905h-25.545c-0.36358 0-0.65629-0.40252-0.65628-0.9025 0-0.49998 0.2927-0.90251 0.65628-0.90251h25.545c0.36358 0 0.65629 0.40253 0.65629 0.90251s-0.29271 0.9025-0.65629 0.9025zm0-5.3809h-25.545c-0.36358 0-0.65629-0.40252-0.65628-0.90251 0-0.49998 0.2927-0.9025 0.65628-0.9025h25.545c0.36358 0 0.65629 0.40252 0.65629 0.9025 0 0.49999-0.29271 0.90251-0.65629 0.90251z" fill="#80b3ff"/>
   <path d="m172.38-145.39c2.5314 0 4.5692-2.8024 4.5692-6.2834 0-3.481-2.0379-6.2834-4.5692-6.2834h-22.784c-1.3858 0-7.398-2.877-7.398-2.877s2.8288 7.5852 2.8288 9.1605c0 3.481 2.0379 6.2834 4.5692 6.2834zm1.3803-2.6905h-25.545c-0.36358 0-0.65629-0.40252-0.65629-0.9025s0.29271-0.90251 0.65629-0.90251h25.545c0.36358 0 0.65629 0.40253 0.65629 0.90251s-0.29271 0.9025-0.65629 0.9025zm0-5.3809h-25.545c-0.36358 0-0.65629-0.40252-0.65629-0.90251 0-0.49998 0.29271-0.9025 0.65629-0.9025h25.545c0.36358 0 0.65629 0.40252 0.65629 0.9025 0 0.49999-0.29271 0.90251-0.65629 0.90251z" fill="#80b3ff"/>
   <path d="m523.45-112.71c-2.5314 0-4.5692 2.8024-4.5692 6.2834 0 3.481 2.0379 6.2834 4.5692 6.2834h22.784c1.3858 0 7.398 2.877 7.398 2.877s-2.8288-7.5852-2.8288-9.1605c0-3.481-2.0379-6.2834-4.5692-6.2834zm-1.3803 2.6905h25.545c0.36358 0 0.65629 0.40253 0.65629 0.90251s-0.29271 0.90251-0.65629 0.90251h-25.545c-0.36359 0-0.6563-0.40253-0.6563-0.90251s0.29271-0.90251 0.6563-0.90251zm0 5.3809h25.545c0.36358 0 0.65629 0.40253 0.65629 0.90251s-0.29271 0.90251-0.65629 0.90251h-25.545c-0.36359 0-0.6563-0.40253-0.6563-0.90251s0.29271-0.90251 0.6563-0.90251z" fill="#04a"/>
  </g>
  <text transform="scale(.7907 1.2647)" x="713.54016" y="-78.338882" fill="#ffffff" font-family="'Poor Richard'" font-size="74.714px" letter-spacing="6.5083px" stroke-width=".38913" style="font-variant-caps:normal;font-variant-east-asian:normal;font-variant-ligatures:normal;font-variant-numeric:normal;line-height:1.25" xml:space="preserve"><tspan x="713.54016" y="-78.338882" fill="#ffffff" font-family="'Poor Richard'" font-size="74.714px" stroke-width=".38913" style="font-variant-caps:normal;font-variant-east-asian:normal;font-variant-ligatures:normal;font-variant-numeric:normal">NetChat</tspan></text>
  <g stroke-width=".30375">
   <path d="m523.45-148.56c-2.5314 0-4.5692 2.8024-4.5692 6.2834 0 3.481 2.0379 6.2834 4.5692 6.2834h22.784c1.3858 0 7.398 2.877 7.398 2.877s-2.8288-7.5852-2.8288-9.1605c0-3.481-2.0379-6.2834-4.5692-6.2834zm-1.3803 2.6905h25.545c0.36358 0 0.65629 0.40253 0.65629 0.90251s-0.29271 0.9025-0.65629 0.9025h-25.545c-0.36358 0-0.65629-0.40252-0.65629-0.9025s0.29271-0.90251 0.65629-0.90251zm0 5.3809h25.545c0.36358 0 0.65629 0.40252 0.65629 0.90251 0 0.49998-0.29271 0.9025-0.65629 0.9025h-25.545c-0.36358 0-0.65629-0.40252-0.65629-0.9025 0-0.49999 0.29271-0.90251 0.65629-0.90251z" fill="#04a"/>
   <path d="m527.78-115.19c2.5314 0 4.5692-2.8024 4.5692-6.2834 0-3.481-2.0379-6.2834-4.5692-6.2834h-22.784c-1.3858 0-7.398-2.877-7.398-2.877s2.8288 7.5852 2.8288 9.1605c0 3.481 2.0379 6.2834 4.5692 6.2834zm1.3803-2.6905h-25.545c-0.36358 0-0.65629-0.40252-0.65628-0.9025 0-0.49998 0.2927-0.90251 0.65628-0.90251h25.545c0.36358 0 0.65629 0.40253 0.65629 0.90251s-0.29271 0.9025-0.65629 0.9025zm0-5.3809h-25.545c-0.36358 0-0.65629-0.40252-0.65628-0.90251 0-0.49998 0.2927-0.9025 0.65628-0.9025h25.545c0.36358 0 0.65629 0.40252 0.65629 0.9025 0 0.49999-0.29271 0.90251-0.65629 0.90251z" fill="#80b3ff"/>
   <path d="m527.78-151.05c2.5314 0 4.5692-2.8024 4.5692-6.2834 0-3.481-2.0379-6.2834-4.5692-6.2834h-22.784c-1.3858 0-7.398-2.877-7.398-2.877s2.8288 7.5852 2.8288 9.1605c0 3.481 2.0379 6.2834 4.5692 6.2834zm1.3803-2.6905h-25.545c-0.36358 0-0.65629-0.40252-0.65629-0.9025s0.29271-0.90251 0.65629-0.90251h25.545c0.36358 0 0.65629 0.40253 0.65629 0.90251s-0.29271 0.9025-0.65629 0.9025zm0-5.3809h-25.545c-0.36358 0-0.65629-0.40252-0.65629-0.90251 0-0.49998 0.29271-0.9025 0.65629-0.9025h25.545c0.36358 0 0.65629 0.40252 0.65629 0.9025 0 0.49999-0.29271 0.90251-0.65629 0.90251z" fill="#80b3ff"/>
  </g>
 </g>
</svg>
